<?xml version="1.0" encoding="UTF-8"?>
<svg width="382px" height="512px" viewBox="0 0 382 512" version="1.1" xmlns="http://www.w3.org/2000/svg" xmlns:xlink="http://www.w3.org/1999/xlink">
    <!-- Generator: Sketch 50.2 (55047) - http://www.bohemiancoding.com/sketch -->
    <title>pitch</title>
    <desc>Created with Sketch.</desc>
    <defs></defs>
    <g id="Page-1" stroke="none" stroke-width="1" fill="none" fill-rule="evenodd">
        <g id="pitch">
            <g id="placeholder">
                <path d="M191,0 C85.805,0 0.223,85.582 0.223,190.777 C0.223,293.481 177.283,500.407 184.82,509.166 C186.369,510.965 188.626,512 191,512 C193.374,512 195.631,510.965 197.18,509.166 C204.718,500.407 381.777,293.481 381.777,190.777 C381.777,85.582 296.195,0 191,0 Z" id="Shape" fill="#4ACFD9" fill-rule="nonzero"></path>
                <path d="M191,43.482 C109.781,43.482 43.705,109.558 43.705,190.777 C43.705,271.996 109.781,338.072 191,338.072 C272.219,338.072 338.295,271.996 338.295,190.777 C338.295,109.558 272.219,43.482 191,43.482 Z" id="Shape" fill="#E6EAEA" fill-rule="nonzero"></path>
                <path d="M0.223,190.777 C0.223,293.481 177.283,500.407 184.82,509.166 C186.369,510.965 188.626,512 191,512 L191,0 C85.805,0 0.223,85.582 0.223,190.777 Z" id="Shape" fill="#6BD9C8" fill-rule="nonzero"></path>
                <path d="M43.705,190.777 C43.705,271.996 109.781,338.072 191,338.072 L191,43.482 C109.781,43.482 43.705,109.558 43.705,190.777 Z" id="Shape" fill="#CDD4D5" fill-rule="nonzero"></path>
                <g id="football-field" transform="translate(94.000000, 75.000000)" fill-rule="nonzero">
                    <path d="M194.91511,198.815144 C195.165483,200.072212 194.855895,201.375896 194.067417,202.385136 C193.261454,203.391986 192.048534,203.984461 190.760899,204 L4.23910066,204 C2.95146621,203.984461 1.73854635,203.391986 0.932582564,202.385136 C0.144105171,201.375896 -0.165483482,200.072212 0.0848898834,198.815144 L22.891519,93.5003694 L24.7566018,85.0005204 L42.4758826,3.31542967 C42.8959535,1.35910573 44.6346574,-0.028250673 46.6300934,0.000436765592 L148.369112,0.000436765592 C150.364945,-0.028250673 152.103649,1.35910573 152.523323,3.31542967 L170.243001,85.000122 L172.108084,93.499971 L194.91511,198.815144 Z" id="Shape" fill="#474FD9"></path>
                    <g id="Group" transform="translate(23.000000, 0.000000)" fill="#FAFAFA">
                        <path d="M147.034864,84.8345731 L111.612888,84.8345731 C104.342402,56.9239532 87.5192713,50.9009825 74.5003963,50.9009825 C55.9019468,50.9009825 42.8826755,63.0324211 37.3879043,84.8345731 L1.96592819,84.8345731 L0.106202128,93.3178713 L36.1198191,93.3178713 C36.0714734,100.294433 38.4986676,107.060632 42.9674787,112.405591 C50.8038484,121.75062 62.3299495,127.177099 74.5003963,127.251462 C86.8055771,127.103532 98.4386729,121.591953 106.371734,112.151088 C110.752572,106.871743 113.093378,100.186667 112.965777,93.3178713 L148.894987,93.3178713 L147.034864,84.8345731 Z M74.5003963,59.3842807 C88.6185426,59.3842807 97.8331622,67.7828772 102.821096,84.8345731 L46.0952899,84.8345731 C50.8292101,68.0373801 60.2978431,59.3842807 74.5003963,59.3842807 Z M99.7772952,106.806924 C88.2912181,120.804187 67.6729468,122.807205 53.7244069,111.281404 C52.1832872,110.007696 50.7614468,108.595205 49.4767181,107.061427 C46.2914468,103.202129 44.5827021,98.3287953 44.6579947,93.318269 L104.427205,93.318269 C104.582545,98.235345 102.927298,103.037497 99.7772952,106.806924 Z" id="Shape"></path>
                        <path d="M121.926779,203.602737 L113.303801,203.602737 L104.850032,161.18545 L44.1507606,161.18545 L35.696992,203.602737 L27.0740133,203.602737 L36.54225,156.095392 C36.9440745,154.120211 38.6758032,152.701754 40.6845293,152.702152 L108.315867,152.702152 C110.324989,152.701754 112.056322,154.120211 112.458146,156.095392 L121.926779,203.602737 Z" id="Shape"></path>
                        <path d="M99.7772952,29.013731 C100.028931,30.2289825 99.6829814,31.4919532 98.847234,32.4069708 C98.0800426,33.4003275 96.8868537,33.9677895 95.6346197,33.9339883 L53.3653803,33.9339883 C52.1131463,33.9677895 50.9199574,33.4003275 50.152766,32.4069708 C49.3170186,31.4915556 48.9710691,30.2289825 49.2227048,29.013731 L54.0414282,0.000397660819 L62.58,0.000397660819 L58.3529176,25.4506901 L90.6466862,25.4506901 L86.4196037,0.000397660819 L94.9581755,0.000397660819 L99.7772952,29.013731 Z" id="Shape"></path>
                    </g>
                </g>
            </g>
        </g>
    </g>
</svg>